<?xml version="1.0" encoding="UTF-8"?>
<svg version="1.1" xmlns="http://www.w3.org/2000/svg" width="165" height="165">
<path d="M0 0 C7.8875499 3.53547825 15.65896634 6.72219317 24 9 C24.99 9.33 25.98 9.66 27 10 C27 10.66 27 11.32 27 12 C25.04174127 12.02694851 23.08337774 12.04637218 21.125 12.0625 C19.48917969 12.07990234 19.48917969 12.07990234 17.8203125 12.09765625 C15 12 15 12 13 11 C13.93493439 12.89709988 14.87306296 14.79262578 15.8125 16.6875 C16.33457031 17.74324219 16.85664062 18.79898438 17.39453125 19.88671875 C19.69078122 24.33954412 21.65693345 28.04456741 25.5625 31.25 C26.16191406 31.75015625 26.76132813 32.2503125 27.37890625 32.765625 C28.99276486 34.07390254 28.99276486 34.07390254 31 35 C30.67 35.99 30.34 36.98 30 38 C27.36 38 24.72 38 22 38 C22 40.31 22 42.62 22 45 C24.31 45.99 26.62 46.98 29 48 C29 48.99 29 49.98 29 51 C25.04 52.98 25.04 52.98 21 55 C21 56.32 21 57.64 21 59 C20.01 59.66 19.02 60.32 18 61 C18.04125 61.9075 18.0825 62.815 18.125 63.75 C17.94517268 68.42551034 16.31752001 69.75787817 13 73 C10.6875 73.875 10.6875 73.875 9 74 C9 75.32 9 76.64 9 78 C7.0625 77.625 7.0625 77.625 5 77 C4.67 76.34 4.34 75.68 4 75 C2.18884044 76.81115956 2.61800552 79.61278227 2.4375 82.0625 C2.31181641 83.71958984 2.31181641 83.71958984 2.18359375 85.41015625 C2.12300781 86.26480469 2.06242187 87.11945313 2 88 C0.515 87.505 0.515 87.505 -1 87 C-1.495 88.98 -1.495 88.98 -2 91 C-3.485 90.505 -3.485 90.505 -5 90 C-5.73046875 88.15234375 -5.73046875 88.15234375 -6.1875 85.9375 C-6.34605469 85.20402344 -6.50460938 84.47054687 -6.66796875 83.71484375 C-6.83232422 82.86599609 -6.83232422 82.86599609 -7 82 C-7.82177734 82.10828125 -7.82177734 82.10828125 -8.66015625 82.21875 C-18.76552657 83.40181774 -28.94028247 83.62711734 -39 82 C-39.09087891 82.93972656 -39.09087891 82.93972656 -39.18359375 83.8984375 C-39.26738281 84.71570313 -39.35117188 85.53296875 -39.4375 86.375 C-39.51871094 87.18710938 -39.59992188 87.99921875 -39.68359375 88.8359375 C-40 91 -40 91 -41 93 C-41.99 93 -42.98 93 -44 93 C-44.33 91.02 -44.66 89.04 -45 87 C-45.99 87.66 -46.98 88.32 -48 89 C-48.66 88.01 -49.32 87.02 -50 86 C-50.99 86 -51.98 86 -53 86 C-53 82.04 -53 78.08 -53 74 C-54.381875 73.938125 -55.76375 73.87625 -57.1875 73.8125 C-60.87423089 73.40608872 -61.93327917 73.05143064 -65 70.6875 C-66.78173807 68.29328947 -67.67537556 66.92161999 -68 64 C-69.27875 64.020625 -70.5575 64.04125 -71.875 64.0625 C-75.75 64.125 -75.75 64.125 -78 63 C-78 62.34 -78 61.68 -78 61 C-77.071875 60.401875 -76.14375 59.80375 -75.1875 59.1875 C-71.83583934 56.88734072 -70.35526141 55.81167273 -69 52 C-69.31079475 49.81092395 -69.86236537 47.75639387 -70.44921875 45.625 C-71.46066137 40.80450751 -71.14928228 35.9014348 -71 31 C-71.98592155 33.05927956 -72.96347494 35.12256688 -73.9375 37.1875 C-74.48277344 38.33605469 -75.02804688 39.48460937 -75.58984375 40.66796875 C-76.79460131 43.51466736 -77.54776271 45.96027845 -78 49 C-78.99 48.67 -79.98 48.34 -81 48 C-79.14948233 33.82893044 -74.31267802 24.33224055 -66 13 C-66.97582031 12.96261719 -67.95164062 12.92523438 -68.95703125 12.88671875 C-70.22933594 12.82097656 -71.50164062 12.75523438 -72.8125 12.6875 C-74.70935547 12.60048828 -74.70935547 12.60048828 -76.64453125 12.51171875 C-80 12 -80 12 -81.94921875 10.45703125 C-82.46935547 9.73580078 -82.46935547 9.73580078 -83 9 C-81.81664063 8.82984375 -80.63328125 8.6596875 -79.4140625 8.484375 C-70.80898399 7.18974117 -62.8886933 5.82983336 -55 2 C-36.32046578 -6.94869312 -19.22892836 -9.25504496 0 0 Z " fill="#38363B" transform="translate(108,38)"/>
<path d="M0 0 C2.79978846 2.79978846 3.6342087 6.01693588 5 9.6875 C5.89018503 12.13576127 5.89018503 12.13576127 8 14 C7.62916167 17.4117126 6.89141824 20.68901795 6 24 C7.32 22.68 8.64 21.36 10 20 C12.66666667 21.33333333 15.33333333 22.66666667 18 24 C17.484375 23.2575 16.96875 22.515 16.4375 21.75 C15 19 15 19 15.2265625 17.109375 C16.14559838 14.6029135 17.40675835 12.68570446 18.9375 10.5 C20.86288786 7.7372813 22.56536576 5.04946407 24 2 C26.46717524 4.2639961 28.10134139 6.59060244 29.75 9.5 C30.19859375 10.2734375 30.6471875 11.046875 31.109375 11.84375 C32 14 32 14 31 17 C28.78298853 18.58965571 26.42137527 19.72327486 24 21 C25.051875 20.484375 26.10375 19.96875 27.1875 19.4375 C30.47557062 18.02356294 32.54724938 17.67983065 36 19 C36.495 19.99 36.495 19.99 37 21 C36.22265625 22.7265625 36.22265625 22.7265625 35.0625 24.625 C34.381875 25.73875 33.70125 26.8525 33 28 C33.99 27.67 34.98 27.34 36 27 C34.125 31.75 34.125 31.75 33 34 C36.465 32.02 36.465 32.02 40 30 C40.33032431 33.55098628 40.2568677 35.5397787 38.5 38.6875 C30.04247007 46.51071518 16.89062098 45.38116929 6.09765625 45.09326172 C-1.42750914 44.75869315 -8.19023364 44.04532342 -14 39 C-16.14418558 35.78372163 -16.67582137 33.80909895 -17 30 C-16.34 29.34 -15.68 28.68 -15 28 C-14.34 30.31 -13.68 32.62 -13 35 C-12.67 30.71 -12.34 26.42 -12 22 C-7.71 22 -3.42 22 1 22 C-3.29 21.34 -7.58 20.68 -12 20 C-11.8125 16.75 -11.8125 16.75 -11 13 C-9.37946188 11.61096733 -7.70294787 10.28667172 -6 9 C-3.84498012 6.09628777 -1.90885932 3.06991809 0 0 Z " fill="#EDE2CE" transform="translate(71,74)"/>
<path d="M0 0 C2.79978846 2.79978846 3.6342087 6.01693588 5 9.6875 C5.89018503 12.13576127 5.89018503 12.13576127 8 14 C7.62916167 17.4117126 6.89141824 20.68901795 6 24 C7.32 22.68 8.64 21.36 10 20 C13.36591866 21.44253657 15.51047079 23.33264727 18 26 C17.21753906 26.12117188 16.43507812 26.24234375 15.62890625 26.3671875 C14.61699219 26.53476563 13.60507813 26.70234375 12.5625 26.875 C11.55316406 27.03742188 10.54382813 27.19984375 9.50390625 27.3671875 C8.67761719 27.57601562 7.85132812 27.78484375 7 28 C5.55569145 30.88861709 5.62311494 32.79647701 6 36 C8.62367103 39.20670904 11.15211415 41.4323428 15 43 C12.81205683 45.18794317 7.96371179 44.27854848 4.9375 44.3125 C4.10283203 44.34150391 3.26816406 44.37050781 2.40820312 44.40039062 C-4.42373568 44.46961526 -9.93735243 42.96385249 -14.9375 38.125 C-16.30554549 35.38890903 -16.80124095 33.04763879 -17 30 C-16.34 29.34 -15.68 28.68 -15 28 C-14.34 30.31 -13.68 32.62 -13 35 C-12.67 30.71 -12.34 26.42 -12 22 C-7.71 22 -3.42 22 1 22 C-3.29 21.34 -7.58 20.68 -12 20 C-11.8125 16.75 -11.8125 16.75 -11 13 C-9.37946188 11.61096733 -7.70294787 10.28667172 -6 9 C-3.84498012 6.09628777 -1.90885932 3.06991809 0 0 Z " fill="#EFE4CF" transform="translate(71,74)"/>
<path d="M0 0 C-0.33 0.99 -0.66 1.98 -1 3 C-0.01 3.33 0.98 3.66 2 4 C5.86697261 9.19721118 8.67193744 15.12384881 11.140625 21.08984375 C12.05290884 23.25755303 12.05290884 23.25755303 14 26 C11.50638429 24.79618552 9.31856917 23.54571278 7 22 C6.154375 21.855625 5.30875 21.71125 4.4375 21.5625 C2 21 2 21 0 18 C0.33 16.80375 0.66 15.6075 1 14.375 C1.45334838 12.23548188 1.45334838 12.23548188 1 10 C-3.65934006 4.06639366 -9.97930609 -0.32673578 -17 -3 C-17.7115625 -3.29648437 -18.423125 -3.59296875 -19.15625 -3.8984375 C-29.3903869 -7.61684057 -41.58766322 -7.54219038 -51.60546875 -3.26171875 C-57.87683061 0.04276719 -64.43161485 4.71623014 -68 11 C-67.84239972 14.11304814 -67.84239972 14.11304814 -67 17 C-67.625 19.8125 -67.625 19.8125 -69 22 C-71.475 22.495 -71.475 22.495 -74 23 C-74 30.26 -74 37.52 -74 45 C-75.485 45.495 -75.485 45.495 -77 46 C-78.90120099 38.87049629 -79.22424141 32.36259293 -79 25 C-79.99 24.67 -80.98 24.34 -82 24 C-80.58160025 19.95057896 -78.62488736 16.86833149 -76.0625 13.4375 C-75.37285156 12.50808594 -74.68320313 11.57867187 -73.97265625 10.62109375 C-73.32167969 9.75613281 -72.67070313 8.89117187 -72 8 C-71.42121094 7.22785156 -70.84242187 6.45570312 -70.24609375 5.66015625 C-69.83488281 5.11230469 -69.42367187 4.56445312 -69 4 C-71.31 4 -73.62 4 -76 4 C-73.18565199 2.12376799 -70.59395513 1.12162721 -67.4375 -0.015625 C-64.55055739 -1.18150567 -61.82990867 -2.57393737 -59.0625 -4 C-38.58656614 -14.25071658 -19.73175104 -10.23127832 0 0 Z " fill="#555359" transform="translate(116,44)"/>
<path d="M0 0 C7.8875499 3.53547825 15.65896634 6.72219317 24 9 C24.99 9.33 25.98 9.66 27 10 C27 10.66 27 11.32 27 12 C25.04174127 12.02694851 23.08337774 12.04637218 21.125 12.0625 C19.48917969 12.07990234 19.48917969 12.07990234 17.8203125 12.09765625 C15 12 15 12 13 11 C13.93493439 12.89709988 14.87306296 14.79262578 15.8125 16.6875 C16.33457031 17.74324219 16.85664062 18.79898438 17.39453125 19.88671875 C18.92827713 22.98911805 18.92827713 22.98911805 20.76171875 25.70703125 C21.17035156 26.46371094 21.57898438 27.22039062 22 28 C21.67 28.99 21.34 29.98 21 31 C17.41492026 27.15884313 15.83543126 23.26619662 14.0078125 18.4453125 C12.47258142 14.72029445 10.7253226 10.8626613 7 9 C7 8.01 7 7.02 7 6 C4.96023786 5.03761964 2.91809954 4.08027473 0.875 3.125 C-0.26195313 2.59132813 -1.39890625 2.05765625 -2.5703125 1.5078125 C-14.71926268 -3.83329772 -30.10906007 -5.62105687 -42.75 -0.875 C-48.08506384 1.45037029 -53.29216397 4.05476203 -58.44140625 6.765625 C-60.66146176 7.83667468 -62.59415548 8.52449191 -65 9 C-63.68 9.33 -62.36 9.66 -61 10 C-62.16476007 12.69981958 -63.65276517 14.94695661 -65.41796875 17.27734375 C-66.09182617 18.17163086 -66.09182617 18.17163086 -66.77929688 19.08398438 C-67.72053263 20.32286472 -68.67115515 21.55466753 -69.63085938 22.77929688 C-72.39614589 26.30871728 -72.39614589 26.30871728 -72.65234375 30.59765625 C-72.32943359 31.78681641 -72.32943359 31.78681641 -72 33 C-72.9609375 35.71875 -72.9609375 35.71875 -74.375 38.5 C-76.14991637 42.03000127 -77.39012937 45.08548153 -78 49 C-78.99 48.67 -79.98 48.34 -81 48 C-79.14948233 33.82893044 -74.31267802 24.33224055 -66 13 C-66.97582031 12.96261719 -67.95164062 12.92523438 -68.95703125 12.88671875 C-70.22933594 12.82097656 -71.50164062 12.75523438 -72.8125 12.6875 C-74.70935547 12.60048828 -74.70935547 12.60048828 -76.64453125 12.51171875 C-80 12 -80 12 -81.94921875 10.45703125 C-82.46935547 9.73580078 -82.46935547 9.73580078 -83 9 C-81.81664063 8.82984375 -80.63328125 8.6596875 -79.4140625 8.484375 C-70.80898399 7.18974117 -62.8886933 5.82983336 -55 2 C-36.32046578 -6.94869312 -19.22892836 -9.25504496 0 0 Z " fill="#19181A" transform="translate(108,38)"/>
<path d="M0 0 C4.75 0.75 4.75 0.75 7 3 C7.66 2.67 8.32 2.34 9 2 C10.67038749 4.93482424 11.20196271 7.08065694 11.3125 10.4375 C11.64922692 14.02925383 11.94499627 14.92818958 14.25 17.9375 C24.07579535 25.30684652 39.55243365 23.78236547 51.33203125 22.69140625 C56.69424172 21.86250094 60.91283625 20.78062647 65 17 C67.99641084 11.64926636 68.97279457 6.00613058 70 0 C70.66 0 71.32 0 72 0 C72.99 2.97 73.98 5.94 75 9 C74.01 8.67 73.02 8.34 72 8 C71.505 7.01 71.505 7.01 71 6 C71 8.64 71 11.28 71 14 C70.34 14.33 69.68 14.66 69 15 C69.99 15.33 70.98 15.66 72 16 C72 17.32 72 18.64 72 20 C71.01 20 70.02 20 69 20 C68.505 19.01 68.505 19.01 68 18 C66.18884044 19.81115956 66.61800552 22.61278227 66.4375 25.0625 C66.31181641 26.71958984 66.31181641 26.71958984 66.18359375 28.41015625 C66.12300781 29.26480469 66.06242187 30.11945313 66 31 C64.515 30.505 64.515 30.505 63 30 C62.67 31.32 62.34 32.64 62 34 C61.01 33.67 60.02 33.34 59 33 C58.26953125 31.15234375 58.26953125 31.15234375 57.8125 28.9375 C57.57466797 27.83728516 57.57466797 27.83728516 57.33203125 26.71484375 C57.22246094 26.14894531 57.11289063 25.58304688 57 25 C56.45214844 25.0721875 55.90429688 25.144375 55.33984375 25.21875 C45.23447343 26.40181774 35.05971753 26.62711734 25 25 C24.90912109 25.93972656 24.90912109 25.93972656 24.81640625 26.8984375 C24.73261719 27.71570313 24.64882812 28.53296875 24.5625 29.375 C24.48128906 30.18710938 24.40007812 30.99921875 24.31640625 31.8359375 C24 34 24 34 23 36 C22.01 36 21.02 36 20 36 C19.67 34.02 19.34 32.04 19 30 C18.01 30.66 17.02 31.32 16 32 C15.34 31.01 14.68 30.02 14 29 C13.01 29 12.02 29 11 29 C11 25.04 11 21.08 11 17 C9.35 17 7.7 17 6 17 C6 16.34 6 15.68 6 15 C6.66 14.67 7.32 14.34 8 14 C8 12.02 8 10.04 8 8 C7.34 8 6.68 8 6 8 C5.67 9.32 5.34 10.64 5 12 C4.01879536 8.94736336 4.01879536 7.05263664 5 4 C3.02 3.34 1.04 2.68 -1 2 C-0.67 1.34 -0.34 0.68 0 0 Z " fill="#211E1C" transform="translate(44,95)"/>
<path d="M0 0 C0.71043457 0.00676758 1.42086914 0.01353516 2.15283203 0.02050781 C14.79274967 0.26761691 25.20064657 4.48829822 36.3125 10.25 C35.9825 11.24 35.6525 12.23 35.3125 13.25 C36.3025 13.58 37.2925 13.91 38.3125 14.25 C42.17947261 19.44721118 44.98443744 25.37384881 47.453125 31.33984375 C48.36540884 33.50755303 48.36540884 33.50755303 50.3125 36.25 C47.81888429 35.04618552 45.63106917 33.79571278 43.3125 32.25 C42.466875 32.105625 41.62125 31.96125 40.75 31.8125 C38.3125 31.25 38.3125 31.25 36.3125 28.25 C36.6425 27.05375 36.9725 25.8575 37.3125 24.625 C37.76584838 22.48548188 37.76584838 22.48548188 37.3125 20.25 C32.65315994 14.31639366 26.33319391 9.92326422 19.3125 7.25 C18.6009375 6.95351563 17.889375 6.65703125 17.15625 6.3515625 C7.29825377 2.76982387 -4.77226606 2.94492202 -14.6875 6.25 C-13.72056517 3.61290502 -13.10318633 2.47097824 -10.5859375 1.1328125 C-7.0218065 0.0472416 -3.68848796 -0.05053917 0 0 Z " fill="#56545A" transform="translate(79.6875,33.75)"/>
<path d="M0 0 C4.269321 -0.41856088 6.3303705 -0.48038638 9.875 2.0625 C12.40344561 5.55770422 13 7.70025859 13 12 C11.5625 14.4375 11.5625 14.4375 10 16 C10.33 16.66 10.66 17.32 11 18 C5.56370977 17.56509678 2.2871779 16.3898616 -2 13 C-4.14418558 9.78372163 -4.67582137 7.80909895 -5 4 C-4.34 3.34 -3.68 2.68 -3 2 C-2.34 4.31 -1.68 6.62 -1 9 C-0.67 6.03 -0.34 3.06 0 0 Z " fill="#E7CFBC" transform="translate(59,100)"/>
<path d="M0 0 C3.0390625 -0.29296875 3.0390625 -0.29296875 6.625 -0.1875 C7.81351563 -0.16042969 9.00203125 -0.13335937 10.2265625 -0.10546875 C11.14179687 -0.07066406 12.05703125 -0.03585938 13 0 C14.55024464 3.10048928 14.28992015 5.57894218 14 9 C12.04174697 12.46460151 10.81138619 13.70651989 7.0625 15.0625 C3.10499279 14.98173455 1.7540538 13.7540538 -1 11 C-2.38550197 8.22899606 -2.1877467 6.0665294 -2 3 C-1.34 2.01 -0.68 1.02 0 0 Z " fill="#9C6A58" transform="translate(78,101)"/>
<path d="M0 0 C0 0.66 0 1.32 0 2 C0.99 1.67 1.98 1.34 3 1 C1.125 5.75 1.125 5.75 0 8 C2.31 6.68 4.62 5.36 7 4 C7.34717213 7.73210035 7.2922789 9.54070458 5.25 12.75 C1.83333333 16.16666667 1.83333333 16.16666667 -1 17 C-4.0625 16.9375 -4.0625 16.9375 -7 16 C-9.48690973 13.19219869 -10.01410644 11.69121569 -9.9375 7.9375 C-8.87360528 4.60396321 -7.68431944 3.19626136 -5 1 C-3 0 -3 0 0 0 Z " fill="#E9D2BD" transform="translate(104,100)"/>
<path d="M0 0 C-0.66 0 -1.32 0 -2 0 C-2 0.66 -2 1.32 -2 2 C0.31 2 2.62 2 5 2 C3.83523993 4.69981958 2.34723483 6.94695661 0.58203125 9.27734375 C-0.09182617 10.17163086 -0.09182617 10.17163086 -0.77929688 11.08398438 C-1.72053263 12.32286472 -2.67115515 13.55466753 -3.63085938 14.77929688 C-6.39614589 18.30871728 -6.39614589 18.30871728 -6.65234375 22.59765625 C-6.43707031 23.39042969 -6.22179688 24.18320313 -6 25 C-6.9609375 27.71875 -6.9609375 27.71875 -8.375 30.5 C-10.14991637 34.03000127 -11.39012937 37.08548153 -12 41 C-12.99 40.67 -13.98 40.34 -15 40 C-13.14948233 25.82893044 -8.31267802 16.33224055 0 5 C-0.97582031 4.96261719 -1.95164062 4.92523438 -2.95703125 4.88671875 C-4.22933594 4.82097656 -5.50164063 4.75523438 -6.8125 4.6875 C-8.07707031 4.62949219 -9.34164062 4.57148437 -10.64453125 4.51171875 C-14 4 -14 4 -15.94921875 2.45703125 C-16.29597656 1.97621094 -16.64273437 1.49539062 -17 1 C-14.73052303 0.63724344 -12.45935265 0.28506814 -10.1875 -0.0625 C-8.92292969 -0.25972656 -7.65835938 -0.45695312 -6.35546875 -0.66015625 C-3 -1 -3 -1 0 0 Z " fill="#232324" transform="translate(42,46)"/>
<path d="M0 0 C4.75 0.75 4.75 0.75 7 3 C7.66 2.67 8.32 2.34 9 2 C10.67038749 4.93482424 11.20196271 7.08065694 11.3125 10.4375 C11.64277417 14.15614254 11.91366767 14.89595847 14.4375 17.9375 C15.283125 18.618125 16.12875 19.29875 17 20 C17.66 20.66 18.32 21.32 19 22 C18.01 22 17.02 22 16 22 C16 22.99 16 23.98 16 25 C17.32 25.33 18.64 25.66 20 26 C20 26.66 20 27.32 20 28 C19.34 28 18.68 28 18 28 C17.67 29.32 17.34 30.64 17 32 C16.566875 31.505 16.13375 31.01 15.6875 30.5 C14.00259517 28.66781808 14.00259517 28.66781808 11 29 C11 25.04 11 21.08 11 17 C9.35 17 7.7 17 6 17 C6 16.34 6 15.68 6 15 C6.66 14.67 7.32 14.34 8 14 C8 12.02 8 10.04 8 8 C7.34 8 6.68 8 6 8 C5.67 9.32 5.34 10.64 5 12 C4.01879536 8.94736336 4.01879536 7.05263664 5 4 C3.02 3.34 1.04 2.68 -1 2 C-0.67 1.34 -0.34 0.68 0 0 Z " fill="#332C29" transform="translate(44,95)"/>
<path d="M0 0 C0.88558594 0.0721875 1.77117188 0.144375 2.68359375 0.21875 C15.42761826 1.17355725 28.30911477 1.84594694 41 0 C41 0.99 41 1.98 41 3 C30.36935998 4.40074316 19.60281494 4.71496108 9 3 C8.93941406 3.62648438 8.87882812 4.25296875 8.81640625 4.8984375 C8.73261719 5.71570313 8.64882812 6.53296875 8.5625 7.375 C8.48128906 8.18710938 8.40007812 8.99921875 8.31640625 9.8359375 C8 12 8 12 7 14 C6.01 14 5.02 14 4 14 C3.67 10.7 3.34 7.4 3 4 C2.01 3.67 1.02 3.34 0 3 C0 2.01 0 1.02 0 0 Z " fill="#3B3734" transform="translate(60,117)"/>
<path d="M0 0 C4 4.625 4 4.625 4 8 C5.04673435 11.51403675 6.26133422 14.77104926 8 18 C8.99 18 9.98 18 11 18 C10.67 19.65 10.34 21.3 10 23 C9.01 22.34 8.02 21.68 7 21 C2.645335 21.32256778 -1.02962882 22.19528583 -5 24 C-2.51047079 21.33264727 -0.36591866 19.44253657 3 18 C1.92050292 15.17669994 0.74966197 12.50895232 -0.625 9.8125 C-2 7 -2 7 -2 5 C-1.34 5 -0.68 5 0 5 C0 3.35 0 1.7 0 0 Z " fill="#25221E" transform="translate(99,72)"/>
<path d="M0 0 C2.625 0.375 2.625 0.375 5 1 C6 4 6 4 6 6 C6.66 6 7.32 6 8 6 C8 7.98 8 9.96 8 12 C8.66 12.33 9.32 12.66 10 13 C2.76712329 12.51780822 2.76712329 12.51780822 -0.5 10.3125 C-2.43719384 7.32599282 -2.45594196 5.49555503 -2 2 C-1.34 1.34 -0.68 0.68 0 0 Z " fill="#EAE1CE" transform="translate(44,97)"/>
<path d="M0 0 C4.875 0.875 4.875 0.875 6 2 C6.375 4.75 6.375 4.75 6 8 C3.6875 10.875 3.6875 10.875 1 13 C0.01 13 -0.98 13 -2 13 C-4.09350689 9.5980513 -4.17942163 6.94727588 -4 3 C-1.525 4.98 -1.525 4.98 1 7 C0.67 4.69 0.34 2.38 0 0 Z " fill="#E7DECC" transform="translate(118,97)"/>
<path d="M0 0 C4.75 1.875 4.75 1.875 7 3 C6.67 3.99 6.34 4.98 6 6 C3.36 6 0.72 6 -2 6 C-2 8.31 -2 10.62 -2 13 C1.465 14.485 1.465 14.485 5 16 C5 16.99 5 17.98 5 19 C2.64561267 20.42944945 1.51967567 21.08661261 -1.25 20.625 C-2.11625 20.315625 -2.11625 20.315625 -3 20 C-2.01 19.67 -1.02 19.34 0 19 C0.33 18.34 0.66 17.68 1 17 C0.195625 16.71125 -0.60875 16.4225 -1.4375 16.125 C-4 15 -4 15 -5 13 C-5.06996014 11.29297265 -5.08440154 9.58331997 -5.0625 7.875 C-5.05347656 6.96492188 -5.04445313 6.05484375 -5.03515625 5.1171875 C-5.02355469 4.41851562 -5.01195313 3.71984375 -5 3 C-3.02 3 -1.04 3 1 3 C0.67 2.01 0.34 1.02 0 0 Z " fill="#1B1A1B" transform="translate(132,70)"/>
<path d="M0 0 C-0.75 4.75 -0.75 4.75 -3 7 C-6.19909824 7.3403296 -8.1917008 7.52148335 -10.9375 5.75 C-12 4 -12 4 -11.875 1.875 C-11.441875 0.946875 -11.441875 0.946875 -11 0 C-6.94952424 -1.35015859 -4.2079832 -0.62084998 0 0 Z " fill="#EAA38D" transform="translate(90,107)"/>
<path d="M0 0 C1.32 0.33 2.64 0.66 4 1 C3.50630258 5.81354989 1.93815542 9.55022461 -0.078125 13.875 C-1.09611172 16.22154565 -1.67271603 18.4635492 -2 21 C-2.99 20.67 -3.98 20.34 -5 20 C-4.0026554 12.95992045 -2.7758018 6.56098608 0 0 Z " fill="#262525" transform="translate(32,66)"/>
<path d="M0 0 C4.75 0.75 4.75 0.75 7 3 C7.66 2.67 8.32 2.34 9 2 C10.90608098 5.21182149 11.22266247 7.53882603 11.125 11.25 C11.10695313 12.14203125 11.08890625 13.0340625 11.0703125 13.953125 C11.03550781 14.96632813 11.03550781 14.96632813 11 16 C9.35 16 7.7 16 6 16 C6.66 15.34 7.32 14.68 8 14 C8.16681109 10.91652174 8.16681109 10.91652174 8 8 C7.34 8 6.68 8 6 8 C5.67 9.32 5.34 10.64 5 12 C4.01879536 8.94736336 4.01879536 7.05263664 5 4 C3.02 3.34 1.04 2.68 -1 2 C-0.67 1.34 -0.34 0.68 0 0 Z " fill="#211E1C" transform="translate(44,95)"/>
<path d="M0 0 C0.66 1.32 1.32 2.64 2 4 C-2.75 9.875 -2.75 9.875 -5 11 C-2.03 11.495 -2.03 11.495 1 12 C-1 14 -1 14 -4.5 14.1875 C-8 14 -8 14 -10 13 C-10 12.34 -10 11.68 -10 11 C-8 9.66666667 -6 8.33333333 -4 7 C-1.88298077 4.59097812 -1.02289206 3.06867617 0 0 Z " fill="#1C1B1B" transform="translate(40,88)"/>
<path d="M0 0 C2.475 0.495 2.475 0.495 5 1 C5 1.99 5 2.98 5 4 C5.98600987 5.85858272 5.98600987 5.85858272 7.3125 7.75 C10.40831758 12.52089168 12.87334373 17.36671864 14 23 C9.6070772 19.339231 7.99681199 15.91239178 6.046875 10.58203125 C4.49392311 6.75180289 2.3208287 3.4051503 0 0 Z " fill="#19181A" transform="translate(116,46)"/>
<path d="M0 0 C1.98 0 3.96 0 6 0 C4.68779266 2.77438124 3.22517631 5.20790172 1.3984375 7.671875 C0.66367187 8.66767578 0.66367187 8.66767578 -0.0859375 9.68359375 C-0.59382813 10.36550781 -1.10171875 11.04742187 -1.625 11.75 C-2.140625 12.44738281 -2.65625 13.14476562 -3.1875 13.86328125 C-4.45559119 15.57755267 -5.7274289 17.28905156 -7 19 C-7.33 18.01 -7.66 17.02 -8 16 C-6.64181304 13.66073656 -5.26875281 11.55308658 -3.6875 9.375 C-3.27048828 8.776875 -2.85347656 8.17875 -2.42382812 7.5625 C0.70906825 3.14546587 0.70906825 3.14546587 3 2 C2.01 1.34 1.02 0.68 0 0 Z " fill="#19191B" transform="translate(41,48)"/>
<path d="M0 0 C0 1.65 0 3.3 0 5 C-0.66 4.67 -1.32 4.34 -2 4 C-2.33 4.66 -2.66 5.32 -3 6 C-2.34 6.33 -1.68 6.66 -1 7 C-1 8.65 -1 10.3 -1 12 C-2.32 12 -3.64 12 -5 12 C-6.01661577 7.62855218 -6.16888759 4.99531924 -4 1 C-2 0 -2 0 0 0 Z " fill="#393636" transform="translate(108,116)"/>
<path d="M0 0 C4 4.625 4 4.625 4 8 C3.6937566 9.33981486 3.36548445 10.67511887 3 12 C1.0625 11.3125 1.0625 11.3125 -1 10 C-1.75 7.375 -1.75 7.375 -2 5 C-1.34 5 -0.68 5 0 5 C0 3.35 0 1.7 0 0 Z " fill="#1E1C1D" transform="translate(99,72)"/>
<path d="M0 0 C0.99 0.495 0.99 0.495 2 1 C2 3.64 2 6.28 2 9 C5.465 10.485 5.465 10.485 9 12 C9 12.99 9 13.98 9 15 C6.64561267 16.42944945 5.51967567 17.08661261 2.75 16.625 C1.88375 16.315625 1.88375 16.315625 1 16 C1.99 15.67 2.98 15.34 4 15 C4.33 14.34 4.66 13.68 5 13 C2.525 12.01 2.525 12.01 0 11 C0 7.37 0 3.74 0 0 Z " fill="#2A2828" transform="translate(128,74)"/>
<path d="M0 0 C0.33 0 0.66 0 1 0 C1 6.93 1 13.86 1 21 C0.34 20.67 -0.32 20.34 -1 20 C-2.81187273 14.38319453 -2.78631077 7.45722115 -1 1.875 C-0.67 1.25625 -0.34 0.6375 0 0 Z " fill="#2A292A" transform="translate(39,66)"/>
<path d="M0 0 C0.66 0.33 1.32 0.66 2 1 C1.67 2.65 1.34 4.3 1 6 C1.66 6 2.32 6 3 6 C3 6.99 3 7.98 3 9 C3.66 9 4.32 9 5 9 C4.67 9.99 4.34 10.98 4 12 C3.566875 11.505 3.13375 11.01 2.6875 10.5 C1.00259517 8.66781808 1.00259517 8.66781808 -2 9 C-1.125 1.125 -1.125 1.125 0 0 Z " fill="#443F3C" transform="translate(57,115)"/>
<path d="M0 0 C0.99 0 1.98 0 3 0 C3.33 4.62 3.66 9.24 4 14 C3.34 13.67 2.68 13.34 2 13 C1.3671875 11.07421875 1.3671875 11.07421875 0.875 8.6875 C0.70742188 7.90761719 0.53984375 7.12773438 0.3671875 6.32421875 C0 4 0 4 0 0 Z " fill="#1E1A19" transform="translate(55,96)"/>
<path d="M0 0 C0.99 0 1.98 0 3 0 C3 1.32 3 2.64 3 4 C3.66 4 4.32 4 5 4 C5 4.99 5 5.98 5 7 C1.125 6.125 1.125 6.125 0 5 C-0.99 5.33 -1.98 5.66 -3 6 C-1.125 1.125 -1.125 1.125 0 0 Z " fill="#1C1918" transform="translate(107,96)"/>
<path d="M0 0 C1.45922693 0.11409593 2.91740598 0.24165544 4.375 0.375 C5.59316406 0.47941406 5.59316406 0.47941406 6.8359375 0.5859375 C9 1 9 1 11 3 C7.535 4.485 7.535 4.485 4 6 C3.34 5.01 2.68 4.02 2 3 C1.01 3 0.02 3 -1 3 C-0.67 2.01 -0.34 1.02 0 0 Z " fill="#353537" transform="translate(116,44)"/>
<path d="M0 0 C2.59783875 2.5082581 5.03692381 4.9572319 7 8 C7 8.99 7 9.98 7 11 C6.34 11 5.68 11 5 11 C3.7109375 9.35546875 3.7109375 9.35546875 2.375 7.1875 C1.92898437 6.47980469 1.48296875 5.77210937 1.0234375 5.04296875 C0 3 0 3 0 0 Z " fill="#C5C0B6" transform="translate(102,79)"/>
<path d="M0 0 C0.66 0 1.32 0 2 0 C3 3 3 3 3 7 C1 9.75 1 9.75 -1 12 C-1.66 11.67 -2.32 11.34 -3 11 C-2.505 10.113125 -2.01 9.22625 -1.5 8.3125 C-0.05621326 5.12413762 0.30159922 3.41812454 0 0 Z " fill="#1B1816" transform="translate(78,87)"/>
<path d="M0 0 C0.99 0 1.98 0 3 0 C2.67 3.3 2.34 6.6 2 10 C1.01 9.67 0.02 9.34 -1 9 C-0.67 6.03 -0.34 3.06 0 0 Z " fill="#262424" transform="translate(28,77)"/>
<path d="M0 0 C-0.33 0.99 -0.66 1.98 -1 3 C-4.3 3.66 -7.6 4.32 -11 5 C-7.72224847 1.72224847 -4.73330318 0 0 0 Z " fill="#1D1C1F" transform="translate(51,42)"/>
<path d="M0 0 C0.79921875 0.20367187 1.5984375 0.40734375 2.421875 0.6171875 C3.02515625 0.78476562 3.6284375 0.95234375 4.25 1.125 C3.92 1.785 3.59 2.445 3.25 3.125 C-2.69 2.135 -2.69 2.135 -8.75 1.125 C-4.56924919 -0.9653754 -4.16186737 -1.10167078 0 0 Z " fill="#232226" transform="translate(96.75,33.875)"/>
<path d="M0 0 C5.66153846 2.46153846 5.66153846 2.46153846 7.375 5.1875 C7.58125 5.785625 7.7875 6.38375 8 7 C4.06326356 5.68775452 1.77280706 4.08089673 -1 1 C-0.67 0.67 -0.34 0.34 0 0 Z " fill="#231F1B" transform="translate(82,92)"/>
<path d="M0 0 C3.11198065 1.49836105 6.0534615 3.19933758 9 5 C7.3125 5.8125 7.3125 5.8125 5 6 C2.25 3.625 2.25 3.625 0 1 C0 0.67 0 0.34 0 0 Z " fill="#3F3A35" transform="translate(41,105)"/>
<path d="M0 0 C0.66 0.33 1.32 0.66 2 1 C1.3125 3.375 1.3125 3.375 0 6 C-2.625 7.3125 -2.625 7.3125 -5 8 C-3.62845496 5.04590299 -2.01136276 2.55991624 0 0 Z " fill="#101012" transform="translate(41,59)"/>
<path d="M0 0 C0.33 0.66 0.66 1.32 1 2 C3.02463255 2.65213292 3.02463255 2.65213292 5 3 C5 3.66 5 4.32 5 5 C3.68 5.33 2.36 5.66 1 6 C1 5.01 1 4.02 1 3 C0.34 3 -0.32 3 -1 3 C-0.67 2.01 -0.34 1.02 0 0 Z " fill="#0B0B0B" transform="translate(59,118)"/>
<path d="M0 0 C0.99 0.33 1.98 0.66 3 1 C3 2.98 3 4.96 3 7 C1.35 7 -0.3 7 -2 7 C-1.34 6.34 -0.68 5.68 0 5 C0.16687448 2.41645782 0.16687448 2.41645782 0 0 Z " fill="#090605" transform="translate(52,104)"/>
<path d="M0 0 C1.32 0.33 2.64 0.66 4 1 C3.67 2.98 3.34 4.96 3 7 C2.01 7 1.02 7 0 7 C0 4.69 0 2.38 0 0 Z " fill="#353436" transform="translate(32,66)"/>
<path d="M0 0 C0.66 0 1.32 0 2 0 C2 1.98 2 3.96 2 6 C2.66 6.33 3.32 6.66 4 7 C2.35 7 0.7 7 -1 7 C-1 6.01 -1 5.02 -1 4 C-0.34 4 0.32 4 1 4 C0.67 2.68 0.34 1.36 0 0 Z " fill="#CCC5B7" transform="translate(50,103)"/>
<path d="M0 0 C0.33 0 0.66 0 1 0 C1.33 3.3 1.66 6.6 2 10 C0.68 9.34 -0.64 8.68 -2 8 C-1.34 5.36 -0.68 2.72 0 0 Z " fill="#191613" transform="translate(113,99)"/>
<path d="M0 0 C0.99 0.33 1.98 0.66 3 1 C3 3.31 3 5.62 3 8 C1 7 1 7 -0.125 3.9375 C-0.41375 2.968125 -0.7025 1.99875 -1 1 C-0.67 0.67 -0.34 0.34 0 0 Z " fill="#312F2E" transform="translate(101,83)"/>
<path d="M0 0 C0.66 0 1.32 0 2 0 C1.67 2.64 1.34 5.28 1 8 C0.34 8 -0.32 8 -1 8 C-0.67 5.36 -0.34 2.72 0 0 Z " fill="#4F4C53" transform="translate(75,49)"/>
</svg>
